<mxfile host="app.diagrams.net" modified="2024-01-07T14:21:55.116Z" agent="Mozilla/5.0 (Macintosh; Intel Mac OS X 10_15_7) AppleWebKit/537.36 (KHTML, like Gecko) Chrome/120.0.0.0 Safari/537.36" etag="Dw9vv24FPhH1Yj8j8W0C" version="22.1.16" type="device">
  <diagram name="Page-1" id="QPRvA_DOiiO0-DDckJG-">
    <mxGraphModel dx="1806" dy="661" grid="0" gridSize="10" guides="1" tooltips="1" connect="1" arrows="1" fold="1" page="0" pageScale="1" pageWidth="850" pageHeight="1100" math="0" shadow="0">
      <root>
        <mxCell id="0" />
        <mxCell id="1" parent="0" />
        <mxCell id="sSSQSR8PU5YQW7ynBP39-1" value="" style="endArrow=none;html=1;rounded=0;fontFamily=palatino;" edge="1" parent="1">
          <mxGeometry width="50" height="50" relative="1" as="geometry">
            <mxPoint x="9" y="550" as="sourcePoint" />
            <mxPoint x="14" y="78" as="targetPoint" />
          </mxGeometry>
        </mxCell>
        <mxCell id="sSSQSR8PU5YQW7ynBP39-2" value="" style="endArrow=none;html=1;rounded=0;fontFamily=palatino;" edge="1" parent="1">
          <mxGeometry width="50" height="50" relative="1" as="geometry">
            <mxPoint x="677" y="528" as="sourcePoint" />
            <mxPoint x="682" y="56" as="targetPoint" />
          </mxGeometry>
        </mxCell>
        <mxCell id="sSSQSR8PU5YQW7ynBP39-3" value="client call" style="text;html=1;align=center;verticalAlign=middle;resizable=0;points=[];autosize=1;strokeColor=none;fillColor=none;fontFamily=palatino;fontSize=18;fontStyle=1;" vertex="1" parent="1">
          <mxGeometry x="-39" y="34" width="67" height="26" as="geometry" />
        </mxCell>
        <mxCell id="sSSQSR8PU5YQW7ynBP39-4" value="client receive" style="text;html=1;align=center;verticalAlign=middle;resizable=0;points=[];autosize=1;strokeColor=none;fillColor=none;fontFamily=palatino;fontSize=18;fontStyle=1" vertex="1" parent="1">
          <mxGeometry x="620" y="14" width="126" height="34" as="geometry" />
        </mxCell>
        <mxCell id="sSSQSR8PU5YQW7ynBP39-5" value="1 req calll &lt;br&gt;(accountIdFrom, accountIdTo)" style="endArrow=classic;html=1;rounded=0;fontSize=14;fontFamily=palatino;fontStyle=1" edge="1" parent="1">
          <mxGeometry x="-0.1136" y="-2" width="50" height="50" relative="1" as="geometry">
            <mxPoint x="12" y="87" as="sourcePoint" />
            <mxPoint x="355" y="91" as="targetPoint" />
            <mxPoint as="offset" />
          </mxGeometry>
        </mxCell>
        <mxCell id="sSSQSR8PU5YQW7ynBP39-6" value="" style="endArrow=none;html=1;rounded=0;fontFamily=palatino;" edge="1" parent="1">
          <mxGeometry width="50" height="50" relative="1" as="geometry">
            <mxPoint x="351" y="536" as="sourcePoint" />
            <mxPoint x="356" y="64" as="targetPoint" />
          </mxGeometry>
        </mxCell>
        <mxCell id="sSSQSR8PU5YQW7ynBP39-7" value="socket server" style="text;html=1;align=center;verticalAlign=middle;resizable=0;points=[];autosize=1;strokeColor=none;fillColor=none;fontFamily=palatino;fontSize=18;fontStyle=1" vertex="1" parent="1">
          <mxGeometry x="295" y="22" width="124" height="34" as="geometry" />
        </mxCell>
        <mxCell id="sSSQSR8PU5YQW7ynBP39-8" value="2 res calll" style="endArrow=classic;html=1;rounded=0;fontSize=14;fontFamily=palatino;fontStyle=1" edge="1" parent="1">
          <mxGeometry x="0.1279" y="5" width="50" height="50" relative="1" as="geometry">
            <mxPoint x="354" y="108" as="sourcePoint" />
            <mxPoint x="682" y="114" as="targetPoint" />
            <mxPoint as="offset" />
          </mxGeometry>
        </mxCell>
        <mxCell id="sSSQSR8PU5YQW7ynBP39-9" value="3.1 req accept call" style="endArrow=classic;html=1;rounded=0;labelBackgroundColor=default;strokeColor=default;align=center;verticalAlign=middle;fontFamily=palatino;fontSize=14;fontColor=default;shape=connector;fillColor=none;gradientColor=none;fontStyle=1;" edge="1" parent="1">
          <mxGeometry width="50" height="50" relative="1" as="geometry">
            <mxPoint x="680" y="137" as="sourcePoint" />
            <mxPoint x="353" y="137" as="targetPoint" />
          </mxGeometry>
        </mxCell>
        <mxCell id="sSSQSR8PU5YQW7ynBP39-11" value="3.2 req reject call" style="endArrow=classic;html=1;rounded=0;labelBackgroundColor=default;strokeColor=default;align=center;verticalAlign=middle;fontFamily=palatino;fontSize=14;fontColor=default;shape=connector;fillColor=none;gradientColor=none;fontStyle=1;" edge="1" parent="1">
          <mxGeometry width="50" height="50" relative="1" as="geometry">
            <mxPoint x="682" y="161" as="sourcePoint" />
            <mxPoint x="355" y="161" as="targetPoint" />
          </mxGeometry>
        </mxCell>
        <mxCell id="sSSQSR8PU5YQW7ynBP39-12" value="4.1 res accept call" style="endArrow=classic;html=1;rounded=0;labelBackgroundColor=default;strokeColor=default;align=center;verticalAlign=middle;fontFamily=palatino;fontSize=14;fontColor=default;shape=connector;fillColor=none;gradientColor=none;fontStyle=1;" edge="1" parent="1">
          <mxGeometry width="50" height="50" relative="1" as="geometry">
            <mxPoint x="353" y="185" as="sourcePoint" />
            <mxPoint x="15" y="185" as="targetPoint" />
            <mxPoint as="offset" />
          </mxGeometry>
        </mxCell>
        <mxCell id="sSSQSR8PU5YQW7ynBP39-13" value="4.2 res reject call" style="endArrow=classic;html=1;rounded=0;labelBackgroundColor=default;strokeColor=default;align=center;verticalAlign=middle;fontFamily=palatino;fontSize=14;fontColor=default;shape=connector;fillColor=none;gradientColor=none;fontStyle=1;" edge="1" parent="1">
          <mxGeometry x="0.0029" width="50" height="50" relative="1" as="geometry">
            <mxPoint x="355" y="209" as="sourcePoint" />
            <mxPoint x="12" y="209" as="targetPoint" />
            <mxPoint as="offset" />
          </mxGeometry>
        </mxCell>
        <mxCell id="sSSQSR8PU5YQW7ynBP39-15" style="edgeStyle=none;shape=connector;rounded=0;orthogonalLoop=1;jettySize=auto;html=1;labelBackgroundColor=default;strokeColor=default;align=center;verticalAlign=middle;fontFamily=palatino;fontSize=14;fontColor=default;endArrow=classic;" edge="1" parent="1" source="sSSQSR8PU5YQW7ynBP39-14">
          <mxGeometry relative="1" as="geometry">
            <mxPoint x="12" y="210" as="targetPoint" />
          </mxGeometry>
        </mxCell>
        <mxCell id="sSSQSR8PU5YQW7ynBP39-14" value="finish" style="text;html=1;align=center;verticalAlign=middle;resizable=0;points=[];autosize=1;strokeColor=none;fillColor=none;fontSize=14;fontFamily=palatino;fontColor=default;" vertex="1" parent="1">
          <mxGeometry x="-157" y="268" width="53" height="29" as="geometry" />
        </mxCell>
        <mxCell id="sSSQSR8PU5YQW7ynBP39-17" style="edgeStyle=none;shape=connector;rounded=0;orthogonalLoop=1;jettySize=auto;html=1;labelBackgroundColor=default;strokeColor=default;align=center;verticalAlign=middle;fontFamily=palatino;fontSize=14;fontColor=default;endArrow=classic;" edge="1" parent="1" source="sSSQSR8PU5YQW7ynBP39-16" target="sSSQSR8PU5YQW7ynBP39-28">
          <mxGeometry relative="1" as="geometry">
            <mxPoint x="680" y="139" as="targetPoint" />
          </mxGeometry>
        </mxCell>
        <mxCell id="sSSQSR8PU5YQW7ynBP39-16" value="init to receive call" style="text;html=1;align=center;verticalAlign=middle;resizable=0;points=[];autosize=1;strokeColor=none;fillColor=none;fontSize=14;fontFamily=palatino;fontColor=default;" vertex="1" parent="1">
          <mxGeometry x="918" y="199" width="127" height="29" as="geometry" />
        </mxCell>
        <mxCell id="sSSQSR8PU5YQW7ynBP39-18" value="5.1 establish peer connection" style="endArrow=classic;html=1;rounded=0;fontSize=14;fontFamily=palatino;fontStyle=1" edge="1" parent="1">
          <mxGeometry x="0.1297" y="5" width="50" height="50" relative="1" as="geometry">
            <mxPoint x="10" y="268" as="sourcePoint" />
            <mxPoint x="679" y="275" as="targetPoint" />
            <mxPoint as="offset" />
          </mxGeometry>
        </mxCell>
        <mxCell id="sSSQSR8PU5YQW7ynBP39-20" style="edgeStyle=none;shape=connector;rounded=0;orthogonalLoop=1;jettySize=auto;html=1;labelBackgroundColor=default;strokeColor=default;align=center;verticalAlign=middle;fontFamily=palatino;fontSize=14;fontColor=default;endArrow=classic;" edge="1" parent="1" source="sSSQSR8PU5YQW7ynBP39-19" target="sSSQSR8PU5YQW7ynBP39-25">
          <mxGeometry relative="1" as="geometry">
            <mxPoint x="679" y="164" as="targetPoint" />
          </mxGeometry>
        </mxCell>
        <mxCell id="sSSQSR8PU5YQW7ynBP39-19" value="finish" style="text;html=1;align=center;verticalAlign=middle;resizable=0;points=[];autosize=1;strokeColor=none;fillColor=none;fontSize=14;fontFamily=palatino;fontColor=default;" vertex="1" parent="1">
          <mxGeometry x="778" y="221" width="53" height="29" as="geometry" />
        </mxCell>
        <mxCell id="sSSQSR8PU5YQW7ynBP39-22" style="edgeStyle=none;shape=connector;rounded=0;orthogonalLoop=1;jettySize=auto;html=1;labelBackgroundColor=default;strokeColor=default;align=center;verticalAlign=middle;fontFamily=palatino;fontSize=14;fontColor=default;endArrow=classic;" edge="1" parent="1" source="sSSQSR8PU5YQW7ynBP39-21">
          <mxGeometry relative="1" as="geometry">
            <mxPoint x="12" y="89" as="targetPoint" />
          </mxGeometry>
        </mxCell>
        <mxCell id="sSSQSR8PU5YQW7ynBP39-21" value="show call view" style="text;html=1;align=center;verticalAlign=middle;resizable=0;points=[];autosize=1;strokeColor=none;fillColor=none;fontSize=14;fontFamily=palatino;fontColor=default;" vertex="1" parent="1">
          <mxGeometry x="-140" y="90" width="110" height="29" as="geometry" />
        </mxCell>
        <mxCell id="sSSQSR8PU5YQW7ynBP39-24" style="edgeStyle=none;shape=connector;rounded=0;orthogonalLoop=1;jettySize=auto;html=1;labelBackgroundColor=default;strokeColor=default;align=center;verticalAlign=middle;fontFamily=palatino;fontSize=14;fontColor=default;endArrow=classic;" edge="1" parent="1" source="sSSQSR8PU5YQW7ynBP39-23">
          <mxGeometry relative="1" as="geometry">
            <mxPoint x="680" y="113" as="targetPoint" />
          </mxGeometry>
        </mxCell>
        <mxCell id="sSSQSR8PU5YQW7ynBP39-23" value="show incomming &lt;br&gt;call component" style="text;html=1;align=center;verticalAlign=middle;resizable=0;points=[];autosize=1;strokeColor=none;fillColor=none;fontSize=14;fontFamily=palatino;fontColor=default;" vertex="1" parent="1">
          <mxGeometry x="762" y="57" width="126" height="46" as="geometry" />
        </mxCell>
        <mxCell id="sSSQSR8PU5YQW7ynBP39-27" style="edgeStyle=none;shape=connector;rounded=0;orthogonalLoop=1;jettySize=auto;html=1;labelBackgroundColor=default;strokeColor=default;align=center;verticalAlign=middle;fontFamily=palatino;fontSize=14;fontColor=default;endArrow=classic;" edge="1" parent="1" source="sSSQSR8PU5YQW7ynBP39-25">
          <mxGeometry relative="1" as="geometry">
            <mxPoint x="683" y="140" as="targetPoint" />
          </mxGeometry>
        </mxCell>
        <mxCell id="sSSQSR8PU5YQW7ynBP39-25" value="close incomming&lt;br&gt;call component" style="text;html=1;align=center;verticalAlign=middle;resizable=0;points=[];autosize=1;strokeColor=none;fillColor=none;fontSize=14;fontFamily=palatino;fontColor=default;" vertex="1" parent="1">
          <mxGeometry x="755" y="133" width="123" height="46" as="geometry" />
        </mxCell>
        <mxCell id="sSSQSR8PU5YQW7ynBP39-26" style="edgeStyle=none;shape=connector;rounded=0;orthogonalLoop=1;jettySize=auto;html=1;labelBackgroundColor=default;strokeColor=default;align=center;verticalAlign=middle;fontFamily=palatino;fontSize=14;fontColor=default;endArrow=classic;" edge="1" parent="1" source="sSSQSR8PU5YQW7ynBP39-25">
          <mxGeometry relative="1" as="geometry">
            <mxPoint x="680" y="164" as="targetPoint" />
          </mxGeometry>
        </mxCell>
        <mxCell id="sSSQSR8PU5YQW7ynBP39-29" style="edgeStyle=none;shape=connector;rounded=0;orthogonalLoop=1;jettySize=auto;html=1;labelBackgroundColor=default;strokeColor=default;align=center;verticalAlign=middle;fontFamily=palatino;fontSize=14;fontColor=default;endArrow=classic;" edge="1" parent="1" source="sSSQSR8PU5YQW7ynBP39-28" target="sSSQSR8PU5YQW7ynBP39-25">
          <mxGeometry relative="1" as="geometry" />
        </mxCell>
        <mxCell id="sSSQSR8PU5YQW7ynBP39-28" value="show call view" style="text;html=1;align=center;verticalAlign=middle;resizable=0;points=[];autosize=1;strokeColor=none;fillColor=none;fontSize=14;fontFamily=palatino;fontColor=default;" vertex="1" parent="1">
          <mxGeometry x="920" y="136" width="110" height="29" as="geometry" />
        </mxCell>
      </root>
    </mxGraphModel>
  </diagram>
</mxfile>
